<?xml version="1.0" encoding="UTF-8" standalone="no"?>
<!DOCTYPE svg PUBLIC "-//W3C//DTD SVG 1.1//EN"
 "http://www.w3.org/Graphics/SVG/1.1/DTD/svg11.dtd">
<!-- Generated by graphviz version 2.38.0 (20140413.2041)
 -->
<!-- Title: Defect Management Diagram Pages: 1 -->
<svg width="245pt" height="554pt"
 viewBox="0.00 0.00 245.00 554.00" xmlns="http://www.w3.org/2000/svg" xmlns:xlink="http://www.w3.org/1999/xlink">
<g id="graph0" class="graph" transform="scale(1 1) rotate(0) translate(4 550)">
<title>Defect Management Diagram</title>
<polygon fill="cornsilk" stroke="none" points="-4,4 -4,-550 241,-550 241,4 -4,4"/>
<text text-anchor="middle" x="118.5" y="-6.8" font-family="Consolas" font-size="9.00">Defect Management Diagram</text>
<!-- start -->
<g id="node1" class="node"><title>start</title>
<path fill="#b2df8a" stroke="#b2df8a" d="M44.5,-546C44.5,-546 14.5,-546 14.5,-546 8.5,-546 2.5,-540 2.5,-534 2.5,-534 2.5,-522 2.5,-522 2.5,-516 8.5,-510 14.5,-510 14.5,-510 44.5,-510 44.5,-510 50.5,-510 56.5,-516 56.5,-522 56.5,-522 56.5,-534 56.5,-534 56.5,-540 50.5,-546 44.5,-546"/>
<text text-anchor="middle" x="29.5" y="-525.8" font-family="Consolas" font-size="9.00">start</text>
</g>
<!-- new -->
<g id="node2" class="node"><title>new</title>
<path fill="#b2df8a" stroke="#b2df8a" d="M44.5,-464C44.5,-464 14.5,-464 14.5,-464 8.5,-464 2.5,-458 2.5,-452 2.5,-452 2.5,-440 2.5,-440 2.5,-434 8.5,-428 14.5,-428 14.5,-428 44.5,-428 44.5,-428 50.5,-428 56.5,-434 56.5,-440 56.5,-440 56.5,-452 56.5,-452 56.5,-458 50.5,-464 44.5,-464"/>
<text text-anchor="middle" x="29.5" y="-443.8" font-family="Consolas" font-size="9.00">new</text>
</g>
<!-- start&#45;&gt;new -->
<g id="edge1" class="edge"><title>start&#45;&gt;new</title>
<path fill="none" stroke="cadetblue" d="M29.5,-509.641C29.5,-499.297 29.5,-485.941 29.5,-474.221"/>
<polygon fill="cadetblue" stroke="cadetblue" points="33.0001,-474.05 29.5,-464.05 26.0001,-474.05 33.0001,-474.05"/>
<text text-anchor="middle" x="64" y="-484.8" font-family="Consolas" font-size="9.00">Anyone.submit</text>
</g>
<!-- triaged -->
<g id="node3" class="node"><title>triaged</title>
<path fill="#b2df8a" stroke="#b2df8a" d="M44.5,-382C44.5,-382 14.5,-382 14.5,-382 8.5,-382 2.5,-376 2.5,-370 2.5,-370 2.5,-358 2.5,-358 2.5,-352 8.5,-346 14.5,-346 14.5,-346 44.5,-346 44.5,-346 50.5,-346 56.5,-352 56.5,-358 56.5,-358 56.5,-370 56.5,-370 56.5,-376 50.5,-382 44.5,-382"/>
<text text-anchor="middle" x="29.5" y="-361.8" font-family="Consolas" font-size="9.00">triaged</text>
</g>
<!-- new&#45;&gt;triaged -->
<g id="edge2" class="edge"><title>new&#45;&gt;triaged</title>
<path fill="none" stroke="cadetblue" d="M29.5,-427.641C29.5,-417.297 29.5,-403.941 29.5,-392.221"/>
<polygon fill="cadetblue" stroke="cadetblue" points="33.0001,-392.05 29.5,-382.05 26.0001,-392.05 33.0001,-392.05"/>
<text text-anchor="middle" x="87.5" y="-402.8" font-family="Consolas" font-size="9.00">Product Manager.triage</text>
</g>
<!-- triaged&#45;&gt;triaged -->
<g id="edge3" class="edge"><title>triaged&#45;&gt;triaged</title>
<path fill="none" stroke="cadetblue" d="M56.7408,-371.493C66.5239,-371.654 74.5,-369.156 74.5,-364 74.5,-360.858 71.5382,-358.703 67.0105,-357.536"/>
<polygon fill="cadetblue" stroke="cadetblue" points="67.0397,-354.021 56.7408,-356.507 66.3423,-360.986 67.0397,-354.021"/>
<text text-anchor="middle" x="117" y="-361.8" font-family="Consolas" font-size="9.00">Developer.assign</text>
</g>
<!-- in process -->
<g id="node4" class="node"><title>in process</title>
<path fill="#b2df8a" stroke="#b2df8a" d="M65,-300C65,-300 20,-300 20,-300 14,-300 8,-294 8,-288 8,-288 8,-276 8,-276 8,-270 14,-264 20,-264 20,-264 65,-264 65,-264 71,-264 77,-270 77,-276 77,-276 77,-288 77,-288 77,-294 71,-300 65,-300"/>
<text text-anchor="middle" x="42.5" y="-279.8" font-family="Consolas" font-size="9.00">in process</text>
</g>
<!-- triaged&#45;&gt;in process -->
<g id="edge4" class="edge"><title>triaged&#45;&gt;in process</title>
<path fill="none" stroke="cadetblue" d="M32.3208,-345.641C34.0017,-335.297 36.1721,-321.941 38.0767,-310.221"/>
<polygon fill="cadetblue" stroke="cadetblue" points="41.58,-310.482 39.7294,-300.05 34.6706,-309.359 41.58,-310.482"/>
<text text-anchor="middle" x="74.5" y="-320.8" font-family="Consolas" font-size="9.00">Developer.work</text>
</g>
<!-- ready to test -->
<g id="node5" class="node"><title>ready to test</title>
<path fill="#b2df8a" stroke="#b2df8a" d="M73,-218C73,-218 12,-218 12,-218 6,-218 0,-212 0,-206 0,-206 0,-194 0,-194 0,-188 6,-182 12,-182 12,-182 73,-182 73,-182 79,-182 85,-188 85,-194 85,-194 85,-206 85,-206 85,-212 79,-218 73,-218"/>
<text text-anchor="middle" x="42.5" y="-197.8" font-family="Consolas" font-size="9.00">ready to test</text>
</g>
<!-- in process&#45;&gt;ready to test -->
<g id="edge5" class="edge"><title>in process&#45;&gt;ready to test</title>
<path fill="none" stroke="cadetblue" d="M42.5,-263.641C42.5,-253.297 42.5,-239.941 42.5,-228.221"/>
<polygon fill="cadetblue" stroke="cadetblue" points="46.0001,-228.05 42.5,-218.05 39.0001,-228.05 46.0001,-228.05"/>
<text text-anchor="middle" x="87.5" y="-238.8" font-family="Consolas" font-size="9.00">Developer.resolve</text>
</g>
<!-- testing -->
<g id="node6" class="node"><title>testing</title>
<path fill="#b2df8a" stroke="#b2df8a" d="M57.5,-136C57.5,-136 27.5,-136 27.5,-136 21.5,-136 15.5,-130 15.5,-124 15.5,-124 15.5,-112 15.5,-112 15.5,-106 21.5,-100 27.5,-100 27.5,-100 57.5,-100 57.5,-100 63.5,-100 69.5,-106 69.5,-112 69.5,-112 69.5,-124 69.5,-124 69.5,-130 63.5,-136 57.5,-136"/>
<text text-anchor="middle" x="42.5" y="-115.8" font-family="Consolas" font-size="9.00">testing</text>
</g>
<!-- ready to test&#45;&gt;testing -->
<g id="edge6" class="edge"><title>ready to test&#45;&gt;testing</title>
<path fill="none" stroke="cadetblue" d="M42.5,-181.641C42.5,-171.297 42.5,-157.941 42.5,-146.221"/>
<polygon fill="cadetblue" stroke="cadetblue" points="46.0001,-146.05 42.5,-136.05 39.0001,-146.05 46.0001,-146.05"/>
<text text-anchor="middle" x="71.5" y="-156.8" font-family="Consolas" font-size="9.00">Tester.work</text>
</g>
<!-- rejected -->
<g id="node7" class="node"><title>rejected</title>
<path fill="#fb9a99" stroke="#fb9a99" d="M225,-382C225,-382 190,-382 190,-382 184,-382 178,-376 178,-370 178,-370 178,-358 178,-358 178,-352 184,-346 190,-346 190,-346 225,-346 225,-346 231,-346 237,-352 237,-358 237,-358 237,-370 237,-370 237,-376 231,-382 225,-382"/>
<text text-anchor="middle" x="207.5" y="-361.8" font-family="Consolas" font-size="9.00">rejected</text>
</g>
<!-- testing&#45;&gt;rejected -->
<g id="edge8" class="edge"><title>testing&#45;&gt;rejected</title>
<path fill="none" stroke="cadetblue" d="M69.6096,-130.265C80.7177,-136.002 92.946,-143.921 101.5,-154 155.018,-217.061 120.595,-259.876 167.5,-328 170.102,-331.779 173.202,-335.41 176.508,-338.808"/>
<polygon fill="cadetblue" stroke="cadetblue" points="174.288,-341.525 183.963,-345.843 179.092,-336.434 174.288,-341.525"/>
<text text-anchor="middle" x="173" y="-238.8" font-family="Consolas" font-size="9.00">Tester.reject</text>
</g>
<!-- closed -->
<g id="node8" class="node"><title>closed</title>
<path fill="#b2df8a" stroke="#b2df8a" d="M57.5,-54C57.5,-54 27.5,-54 27.5,-54 21.5,-54 15.5,-48 15.5,-42 15.5,-42 15.5,-30 15.5,-30 15.5,-24 21.5,-18 27.5,-18 27.5,-18 57.5,-18 57.5,-18 63.5,-18 69.5,-24 69.5,-30 69.5,-30 69.5,-42 69.5,-42 69.5,-48 63.5,-54 57.5,-54"/>
<text text-anchor="middle" x="42.5" y="-33.8" font-family="Consolas" font-size="9.00">closed</text>
</g>
<!-- testing&#45;&gt;closed -->
<g id="edge7" class="edge"><title>testing&#45;&gt;closed</title>
<path fill="none" stroke="cadetblue" d="M42.5,-99.6412C42.5,-89.2971 42.5,-75.941 42.5,-64.2206"/>
<polygon fill="cadetblue" stroke="cadetblue" points="46.0001,-64.0501 42.5,-54.0501 39.0001,-64.0501 46.0001,-64.0501"/>
<text text-anchor="middle" x="77" y="-74.8" font-family="Consolas" font-size="9.00">Tester.verify</text>
</g>
<!-- rejected&#45;&gt;in process -->
<g id="edge9" class="edge"><title>rejected&#45;&gt;in process</title>
<path fill="none" stroke="cadetblue" d="M177.697,-348.349C159.703,-339.522 136.304,-328.075 115.5,-318 106.01,-313.404 95.8124,-308.496 86.1374,-303.853"/>
<polygon fill="cadetblue" stroke="cadetblue" points="87.592,-300.669 77.0616,-299.502 84.5659,-306.981 87.592,-300.669"/>
<text text-anchor="middle" x="173.5" y="-320.8" font-family="Consolas" font-size="9.00">Developer.work</text>
</g>
</g>
</svg>
