<?xml version="1.0" encoding="UTF-8" standalone="no"?>
<!DOCTYPE svg PUBLIC "-//W3C//DTD SVG 1.1//EN"
 "http://www.w3.org/Graphics/SVG/1.1/DTD/svg11.dtd">
<!-- Generated by graphviz version 2.38.0 (20140413.2041)
 -->
<!-- Title: Feature Management Diagram Pages: 1 -->
<svg width="181pt" height="554pt"
 viewBox="0.00 0.00 180.50 554.00" xmlns="http://www.w3.org/2000/svg" xmlns:xlink="http://www.w3.org/1999/xlink">
<g id="graph0" class="graph" transform="scale(1 1) rotate(0) translate(4 550)">
<title>Feature Management Diagram</title>
<polygon fill="cornsilk" stroke="none" points="-4,4 -4,-550 176.5,-550 176.5,4 -4,4"/>
<text text-anchor="middle" x="86.25" y="-6.8" font-family="Consolas" font-size="9.00">Feature Management Diagram</text>
<!-- start -->
<g id="node1" class="node"><title>start</title>
<path fill="#b2df8a" stroke="#b2df8a" d="M57.5,-546C57.5,-546 27.5,-546 27.5,-546 21.5,-546 15.5,-540 15.5,-534 15.5,-534 15.5,-522 15.5,-522 15.5,-516 21.5,-510 27.5,-510 27.5,-510 57.5,-510 57.5,-510 63.5,-510 69.5,-516 69.5,-522 69.5,-522 69.5,-534 69.5,-534 69.5,-540 63.5,-546 57.5,-546"/>
<text text-anchor="middle" x="42.5" y="-525.8" font-family="Consolas" font-size="9.00">start</text>
</g>
<!-- new -->
<g id="node2" class="node"><title>new</title>
<path fill="#b2df8a" stroke="#b2df8a" d="M57.5,-464C57.5,-464 27.5,-464 27.5,-464 21.5,-464 15.5,-458 15.5,-452 15.5,-452 15.5,-440 15.5,-440 15.5,-434 21.5,-428 27.5,-428 27.5,-428 57.5,-428 57.5,-428 63.5,-428 69.5,-434 69.5,-440 69.5,-440 69.5,-452 69.5,-452 69.5,-458 63.5,-464 57.5,-464"/>
<text text-anchor="middle" x="42.5" y="-443.8" font-family="Consolas" font-size="9.00">new</text>
</g>
<!-- start&#45;&gt;new -->
<g id="edge1" class="edge"><title>start&#45;&gt;new</title>
<path fill="none" stroke="cadetblue" d="M42.5,-509.641C42.5,-499.297 42.5,-485.941 42.5,-474.221"/>
<polygon fill="cadetblue" stroke="cadetblue" points="46.0001,-474.05 42.5,-464.05 39.0001,-474.05 46.0001,-474.05"/>
<text text-anchor="middle" x="77" y="-484.8" font-family="Consolas" font-size="9.00">Anyone.submit</text>
</g>
<!-- triaged -->
<g id="node3" class="node"><title>triaged</title>
<path fill="#b2df8a" stroke="#b2df8a" d="M57.5,-382C57.5,-382 27.5,-382 27.5,-382 21.5,-382 15.5,-376 15.5,-370 15.5,-370 15.5,-358 15.5,-358 15.5,-352 21.5,-346 27.5,-346 27.5,-346 57.5,-346 57.5,-346 63.5,-346 69.5,-352 69.5,-358 69.5,-358 69.5,-370 69.5,-370 69.5,-376 63.5,-382 57.5,-382"/>
<text text-anchor="middle" x="42.5" y="-361.8" font-family="Consolas" font-size="9.00">triaged</text>
</g>
<!-- new&#45;&gt;triaged -->
<g id="edge2" class="edge"><title>new&#45;&gt;triaged</title>
<path fill="none" stroke="cadetblue" d="M42.5,-427.641C42.5,-417.297 42.5,-403.941 42.5,-392.221"/>
<polygon fill="cadetblue" stroke="cadetblue" points="46.0001,-392.05 42.5,-382.05 39.0001,-392.05 46.0001,-392.05"/>
<text text-anchor="middle" x="100.5" y="-402.8" font-family="Consolas" font-size="9.00">Product Manager.triage</text>
</g>
<!-- triaged&#45;&gt;triaged -->
<g id="edge3" class="edge"><title>triaged&#45;&gt;triaged</title>
<path fill="none" stroke="cadetblue" d="M69.7408,-371.493C79.5239,-371.654 87.5,-369.156 87.5,-364 87.5,-360.858 84.5382,-358.703 80.0105,-357.536"/>
<polygon fill="cadetblue" stroke="cadetblue" points="80.0397,-354.021 69.7408,-356.507 79.3423,-360.986 80.0397,-354.021"/>
<text text-anchor="middle" x="130" y="-361.8" font-family="Consolas" font-size="9.00">Developer.assign</text>
</g>
<!-- in process -->
<g id="node4" class="node"><title>in process</title>
<path fill="#b2df8a" stroke="#b2df8a" d="M65,-300C65,-300 20,-300 20,-300 14,-300 8,-294 8,-288 8,-288 8,-276 8,-276 8,-270 14,-264 20,-264 20,-264 65,-264 65,-264 71,-264 77,-270 77,-276 77,-276 77,-288 77,-288 77,-294 71,-300 65,-300"/>
<text text-anchor="middle" x="42.5" y="-279.8" font-family="Consolas" font-size="9.00">in process</text>
</g>
<!-- triaged&#45;&gt;in process -->
<g id="edge4" class="edge"><title>triaged&#45;&gt;in process</title>
<path fill="none" stroke="cadetblue" d="M42.5,-345.641C42.5,-335.297 42.5,-321.941 42.5,-310.221"/>
<polygon fill="cadetblue" stroke="cadetblue" points="46.0001,-310.05 42.5,-300.05 39.0001,-310.05 46.0001,-310.05"/>
<text text-anchor="middle" x="79.5" y="-320.8" font-family="Consolas" font-size="9.00">Developer.work</text>
</g>
<!-- ready to test -->
<g id="node5" class="node"><title>ready to test</title>
<path fill="#b2df8a" stroke="#b2df8a" d="M73,-218C73,-218 12,-218 12,-218 6,-218 0,-212 0,-206 0,-206 0,-194 0,-194 0,-188 6,-182 12,-182 12,-182 73,-182 73,-182 79,-182 85,-188 85,-194 85,-194 85,-206 85,-206 85,-212 79,-218 73,-218"/>
<text text-anchor="middle" x="42.5" y="-197.8" font-family="Consolas" font-size="9.00">ready to test</text>
</g>
<!-- in process&#45;&gt;ready to test -->
<g id="edge5" class="edge"><title>in process&#45;&gt;ready to test</title>
<path fill="none" stroke="cadetblue" d="M42.5,-263.641C42.5,-253.297 42.5,-239.941 42.5,-228.221"/>
<polygon fill="cadetblue" stroke="cadetblue" points="46.0001,-228.05 42.5,-218.05 39.0001,-228.05 46.0001,-228.05"/>
<text text-anchor="middle" x="87.5" y="-238.8" font-family="Consolas" font-size="9.00">Developer.resolve</text>
</g>
<!-- testing -->
<g id="node6" class="node"><title>testing</title>
<path fill="#b2df8a" stroke="#b2df8a" d="M57.5,-136C57.5,-136 27.5,-136 27.5,-136 21.5,-136 15.5,-130 15.5,-124 15.5,-124 15.5,-112 15.5,-112 15.5,-106 21.5,-100 27.5,-100 27.5,-100 57.5,-100 57.5,-100 63.5,-100 69.5,-106 69.5,-112 69.5,-112 69.5,-124 69.5,-124 69.5,-130 63.5,-136 57.5,-136"/>
<text text-anchor="middle" x="42.5" y="-115.8" font-family="Consolas" font-size="9.00">testing</text>
</g>
<!-- ready to test&#45;&gt;testing -->
<g id="edge6" class="edge"><title>ready to test&#45;&gt;testing</title>
<path fill="none" stroke="cadetblue" d="M42.5,-181.641C42.5,-171.297 42.5,-157.941 42.5,-146.221"/>
<polygon fill="cadetblue" stroke="cadetblue" points="46.0001,-146.05 42.5,-136.05 39.0001,-146.05 46.0001,-146.05"/>
<text text-anchor="middle" x="71.5" y="-156.8" font-family="Consolas" font-size="9.00">Tester.work</text>
</g>
<!-- closed -->
<g id="node7" class="node"><title>closed</title>
<path fill="#b2df8a" stroke="#b2df8a" d="M57.5,-54C57.5,-54 27.5,-54 27.5,-54 21.5,-54 15.5,-48 15.5,-42 15.5,-42 15.5,-30 15.5,-30 15.5,-24 21.5,-18 27.5,-18 27.5,-18 57.5,-18 57.5,-18 63.5,-18 69.5,-24 69.5,-30 69.5,-30 69.5,-42 69.5,-42 69.5,-48 63.5,-54 57.5,-54"/>
<text text-anchor="middle" x="42.5" y="-33.8" font-family="Consolas" font-size="9.00">closed</text>
</g>
<!-- testing&#45;&gt;closed -->
<g id="edge7" class="edge"><title>testing&#45;&gt;closed</title>
<path fill="none" stroke="cadetblue" d="M42.5,-99.6412C42.5,-89.2971 42.5,-75.941 42.5,-64.2206"/>
<polygon fill="cadetblue" stroke="cadetblue" points="46.0001,-64.0501 42.5,-54.0501 39.0001,-64.0501 46.0001,-64.0501"/>
<text text-anchor="middle" x="77" y="-74.8" font-family="Consolas" font-size="9.00">Tester.verify</text>
</g>
</g>
</svg>
